<?xml version="1.0" encoding="UTF-8" standalone="no"?>
<!DOCTYPE svg PUBLIC "-//W3C//DTD SVG 1.1//EN" "http://www.w3.org/Graphics/SVG/1.1/DTD/svg11.dtd">
<svg version="1.1" xmlns="http://www.w3.org/2000/svg" xmlns:xlink="http://www.w3.org/1999/xlink" preserveAspectRatio="xMidYMid meet" viewBox="0 0 750 1334" width="750" height="1334"><defs><path d="M370.49 590.15C415.76 629.17 444.05 653.56 455.37 663.31C639.06 821.65 743.94 1052.66 742.22 1295.17C742.18 1301.41 742.73 1223.42 742.18 1301.05C742.08 1315.07 730.69 1326.39 716.67 1326.39C575.27 1326.39 181.28 1326.39 41.1 1326.39C23.58 1326.39 9.22 1312.49 8.65 1294.98C6.14 1218.56 8.85 1301.25 8.64 1294.97C0.71 1053.36 102.54 821.14 285.64 663.3C296.95 653.55 325.24 629.16 370.49 590.15Z" id="b1SI1IdaF1"></path><path d="M370.49 743.9C415.76 704.88 444.05 680.49 455.37 670.74C639.06 512.4 743.94 281.39 742.22 38.88C742.18 32.64 742.73 110.63 742.18 33C742.08 18.98 730.69 7.66 716.67 7.66C575.27 7.66 181.28 7.66 41.1 7.66C23.58 7.66 9.22 21.56 8.65 39.07C6.14 115.49 8.85 32.8 8.64 39.08C0.71 280.69 102.54 512.91 285.64 670.75C296.95 680.5 325.24 704.88 370.49 743.9Z" id="a1P0K5Zluq"></path></defs><g><g><g><use xlink:href="#b1SI1IdaF1" opacity="1" fill="#1c5d99" fill-opacity="1"></use><g><use xlink:href="#b1SI1IdaF1" opacity="1" fill-opacity="0" stroke="#1c5d99" stroke-width="15" stroke-opacity="1"></use></g></g><g><use xlink:href="#a1P0K5Zluq" opacity="1" fill="#1c5d99" fill-opacity="1"></use><g><use xlink:href="#a1P0K5Zluq" opacity="1" fill-opacity="0" stroke="#1c5d99" stroke-width="15" stroke-opacity="1"></use></g></g></g></g></svg>