<?xml version="1.0" encoding="UTF-8" standalone="no"?>
<!DOCTYPE svg PUBLIC "-//W3C//DTD SVG 1.1//EN" "http://www.w3.org/Graphics/SVG/1.1/DTD/svg11.dtd">
<svg version="1.1" xmlns="http://www.w3.org/2000/svg" xmlns:xlink="http://www.w3.org/1999/xlink" preserveAspectRatio="xMidYMid meet" viewBox="0 0 640 640" width="640" height="640"><defs><path d="M332.6 263.76C348.87 280.26 359.04 290.56 363.1 294.69C392.35 324.35 408.75 364.33 408.75 405.98C408.75 408.55 408.75 392.98 408.75 405.98C408.75 413.08 403 418.84 395.89 418.84C368.01 418.84 296.41 418.84 268.32 418.84C261.77 418.84 256.46 413.53 256.46 406.98C256.46 393.78 256.46 409.35 256.46 406.98C256.46 364.68 273.11 324.09 302.81 293.98C306.78 289.95 316.71 279.88 332.6 263.76Z" id="a5RUmIv92"></path><path d="M332.6 300.12C348.87 283.63 359.04 273.32 363.1 269.2C392.35 239.54 408.75 199.56 408.75 157.9C408.75 155.33 408.75 170.91 408.75 157.9C408.75 150.8 403 145.05 395.89 145.05C368.01 145.05 296.41 145.05 268.32 145.05C261.77 145.05 256.46 150.36 256.46 156.91C256.46 170.11 256.46 154.54 256.46 156.91C256.46 199.2 273.11 239.79 302.81 269.91C306.78 273.94 316.71 284.01 332.6 300.12Z" id="c4QPnbkwdW"></path></defs><g><g><g><use xlink:href="#a5RUmIv92" opacity="1" fill="#1c5d99" fill-opacity="1"></use></g><g><use xlink:href="#c4QPnbkwdW" opacity="1" fill="#1c5d99" fill-opacity="1"></use></g></g></g></svg>
